<svg width="0" height="0" class="hidden">
  <symbol viewBox="0 0 50 50" xmlns="http://www.w3.org/2000/svg" id="Facebook">
    <title></title>
    <path d="M25 50c13.807 0 25-11.193 25-25S38.807 0 25 0 0 11.193 0 25s11.193 25 25 25zm0-3c12.15 0 22-9.85 22-22S37.15 3 25 3 3 12.85 3 25s9.85 22 22 22zm1.815-11V24.999h3.254l.431-3.791h-3.685l.005-1.898c0-.989.1-1.518 1.623-1.518h2.034V14h-3.255c-3.91 0-5.285 1.84-5.285 4.932v2.276H19.5v3.791h2.437V36h4.878zm0 0"
      fill-rule="evenodd"></path>
  </symbol>
  <symbol viewBox="0 0 50 50" xmlns="http://www.w3.org/2000/svg" id="Twitter">
    <title></title>
    <path d="M25 50c13.807 0 25-11.193 25-25S38.807 0 25 0 0 11.193 0 25s11.193 25 25 25zm0-3c12.15 0 22-9.85 22-22S37.15 3 25 3 3 12.85 3 25s9.85 22 22 22zm-.318-26.446l.048.822-.795-.1c-2.893-.386-5.42-1.694-7.566-3.892l-1.05-1.09-.27.805c-.572 1.795-.207 3.69.986 4.965.636.704.492.805-.604.385-.382-.134-.716-.234-.747-.184-.112.117.27 1.644.572 2.247.413.839 1.256 1.66 2.178 2.147l.778.386-.921.017c-.89 0-.922.016-.827.369.318 1.09 1.574 2.247 2.973 2.75l.985.352-.858.537a8.66 8.66 0 0 1-4.26 1.241c-.716.017-1.304.084-1.304.134 0 .168 1.94 1.107 3.068 1.476 3.386 1.09 7.408.62 10.428-1.24 2.146-1.326 4.292-3.959 5.293-6.508.54-1.359 1.081-3.84 1.081-5.032 0-.771.048-.872.938-1.794.525-.537 1.018-1.124 1.113-1.292.159-.318.143-.318-.668-.033-1.35.503-1.542.436-.874-.319.493-.537 1.08-1.51 1.08-1.794 0-.05-.238.033-.508.184-.286.168-.922.42-1.399.57l-.858.285-.779-.553c-.43-.302-1.033-.637-1.351-.738-.81-.235-2.05-.201-2.782.067a4.806 4.806 0 0 0-3.1 4.83s-.143-2.13 0 0zm0 0"
      fill-rule="evenodd"></path>
  </symbol>
    <symbol xmlns="http://www.w3.org/2000/svg" viewBox="0 0 235 235" id="google-plus">
    <path d="M117.5 0C52.71 0 0 52.71 0 117.5S52.71 235 117.5 235 235 182.29 235 117.5 182.29 0 117.5 0zm0 220C60.981 220 15 174.019 15 117.5S60.981 15 117.5 15 220 60.981 220 117.5 174.019 220 117.5 220zM95.064 110h48.026v7.5c0 26.481-21.544 48.025-48.026 48.025-26.482 0-48.025-21.544-48.025-48.025s21.544-48.025 48.025-48.025c10.684 0 20.806 3.439 29.271 9.946l-9.142 11.893c-5.82-4.474-12.781-6.839-20.129-6.839-18.211 0-33.025 14.815-33.025 33.025s14.815 33.025 33.025 33.025c15.632 0 28.762-10.916 32.167-25.525H95.064v-15zm89.691 0h13.075v15h-13.075v13.076h-15V125h-13.069v-15h13.069V96.924h15V110z"></path>
  </symbol>
  <symbol viewBox="0 0 50 50" xmlns="http://www.w3.org/2000/svg" id="iconfinder_LinkedIn_194920">
    <title></title>
    <path d="M25 50c13.807 0 25-11.193 25-25S38.807 0 25 0 0 11.193 0 25s11.193 25 25 25zm0-3c12.15 0 22-9.85 22-22S37.15 3 25 3 3 12.85 3 25s9.85 22 22 22zM14 20.118v14.54h4.71v-14.54H14zM16.665 13C15.053 13 14 14.086 14 15.512c0 1.396 1.022 2.513 2.604 2.513h.03c1.642 0 2.665-1.117 2.665-2.513-.03-1.426-1.023-2.512-2.634-2.512zm13.912 7.118c-2.5 0-3.62 1.411-4.246 2.401v-2.06h-4.71c.062 1.365 0 14.541 0 14.541h4.71v-8.12c0-.435.031-.868.156-1.18.34-.868 1.115-1.767 2.416-1.767 1.705 0 2.387 1.334 2.387 3.288V35H36v-8.337c0-4.466-2.324-6.545-5.423-6.545zm0 0"
      fill-rule="evenodd"></path>
  </symbol>
</svg>


  



  
